<svg width="143" height="23" viewBox="0 0 143 23" fill="none" xmlns="http://www.w3.org/2000/svg">
<path d="M17.384 22.208C16.808 22.032 16.368 21.856 16.064 21.68C15.776 21.504 15.632 21.264 15.632 20.96C15.632 20.608 15.872 20.12 16.352 19.496C17.952 17.448 19.064 15.776 19.688 14.48C20.312 13.184 20.624 12.208 20.624 11.552C20.624 11.04 20.48 10.696 20.192 10.52C19.968 10.36 19.688 10.256 19.352 10.208C19.016 10.144 18.648 10.112 18.248 10.112C17.848 10.112 17.432 10.136 17 10.184C15.96 11.112 15.008 12.024 14.144 12.92C13.296 13.816 12.56 14.648 11.936 15.416C11.888 15.48 11.824 15.512 11.744 15.512C11.696 15.512 11.656 15.496 11.624 15.464C11.592 15.416 11.6 15.36 11.648 15.296C12.256 14.528 12.928 13.72 13.664 12.872C14.4 12.024 15.192 11.168 16.04 10.304C15.848 10.336 15.664 10.368 15.488 10.4C15.312 10.416 15.144 10.44 14.984 10.472C14.376 11.144 13.792 11.816 13.232 12.488C12.672 13.144 12.2 13.776 11.816 14.384C11.752 14.464 11.632 14.656 11.456 14.96C11.296 15.248 11.144 15.528 11 15.8C11.032 15.8 11.064 15.808 11.096 15.824C11.128 15.824 11.176 15.824 11.24 15.824C11.368 15.824 11.432 15.88 11.432 15.992C11.432 16.152 11.336 16.408 11.144 16.76C10.952 17.112 10.768 17.472 10.592 17.84C10.496 17.984 10.32 18.056 10.064 18.056C9.856 18.056 9.64 17.968 9.416 17.792C9.208 17.632 9.104 17.368 9.104 17C9.104 16.84 9.2 16.568 9.392 16.184C9.6 15.8 9.864 15.344 10.184 14.816C10.52 14.288 10.88 13.736 11.264 13.16C11.648 12.584 12.032 12.024 12.416 11.48C12.72 11.048 13.112 10.528 13.592 9.92C14.072 9.312 14.584 8.664 15.128 7.976C15.672 7.288 16.2 6.6 16.712 5.912C17.224 5.224 17.672 4.592 18.056 4.016C18.28 3.68 18.472 3.376 18.632 3.104C18.792 2.816 18.872 2.568 18.872 2.36C18.872 2.168 18.76 2.016 18.536 1.904C18.328 1.792 17.968 1.736 17.456 1.736C16.992 1.736 16.36 1.808 15.56 1.952C14.76 2.08 13.864 2.272 12.872 2.528C11.88 2.768 10.856 3.056 9.8 3.392C8.76 3.728 7.736 4.096 6.728 4.496C5.736 4.88 4.832 5.288 4.016 5.72C3.2 6.136 2.544 6.56 2.048 6.992C1.776 7.232 1.64 7.448 1.64 7.64C1.64 7.912 1.848 8.048 2.264 8.048C2.344 8.096 2.384 8.144 2.384 8.192C2.384 8.304 2.224 8.336 1.904 8.288C1.776 8.256 1.56 8.168 1.256 8.024C0.968 7.864 0.696 7.672 0.44 7.448C0.2 7.208 0.08 6.976 0.08 6.752C0.08 6.432 0.368 6.08 0.944 5.696C1.536 5.296 2.32 4.888 3.296 4.472C4.272 4.056 5.368 3.656 6.584 3.272C7.8 2.888 9.056 2.544 10.352 2.24C11.648 1.936 12.896 1.696 14.096 1.52C15.296 1.328 16.36 1.232 17.288 1.232C17.704 1.232 18.088 1.256 18.44 1.304C18.792 1.336 19.096 1.4 19.352 1.496C20.2 1.816 20.624 2.336 20.624 3.056C20.624 3.68 20.296 4.44 19.64 5.336C19.24 5.896 18.648 6.592 17.864 7.424C17.08 8.24 16.256 9.112 15.392 10.04C15.568 10.008 15.744 9.976 15.92 9.944C16.112 9.912 16.296 9.888 16.472 9.872C17.704 8.64 19 7.456 20.36 6.32C21.72 5.168 23.104 4.136 24.512 3.224C25.936 2.312 27.336 1.592 28.712 1.064C30.088 0.52 31.392 0.248 32.624 0.248C33.136 0.248 33.6 0.36 34.016 0.584C34.432 0.808 34.72 1.056 34.88 1.328C34.896 1.36 34.904 1.4 34.904 1.448C34.904 1.512 34.872 1.568 34.808 1.616C34.744 1.664 34.688 1.648 34.64 1.568C34.496 1.312 34.288 1.128 34.016 1.016C33.76 0.903999 33.456 0.847999 33.104 0.847999C32.512 0.847999 31.824 0.983999 31.04 1.256C30.256 1.512 29.44 1.848 28.592 2.264C27.76 2.664 26.944 3.096 26.144 3.56C25.344 4.024 24.632 4.464 24.008 4.88C22.808 5.648 21.664 6.448 20.576 7.28C19.488 8.096 18.464 8.92 17.504 9.752C18.016 9.704 18.496 9.68 18.944 9.68C19.856 9.68 20.624 9.832 21.248 10.136C21.872 10.424 22.184 10.976 22.184 11.792C22.184 12.288 22.04 12.904 21.752 13.64C21.48 14.376 21.016 15.256 20.36 16.28C20.2 16.552 19.944 16.936 19.592 17.432C19.256 17.928 18.904 18.448 18.536 18.992C18.168 19.552 17.856 20.056 17.6 20.504C17.344 20.952 17.216 21.272 17.216 21.464C17.216 21.672 17.304 21.808 17.48 21.872C17.576 21.888 17.624 21.944 17.624 22.04C17.624 22.088 17.6 22.128 17.552 22.16C17.52 22.208 17.464 22.224 17.384 22.208ZM24.161 17.264C23.905 17.264 23.689 17.176 23.513 17C23.353 16.84 23.233 16.648 23.153 16.424C23.073 16.2 23.033 16.008 23.033 15.848C23.033 15.304 23.201 14.728 23.537 14.12C23.873 13.512 24.305 12.944 24.833 12.416C25.377 11.888 25.945 11.456 26.537 11.12C27.129 10.784 27.681 10.616 28.193 10.616C28.561 10.616 28.929 10.864 29.297 11.36C29.329 11.408 29.361 11.472 29.393 11.552C29.441 11.632 29.465 11.712 29.465 11.792C29.465 11.936 29.409 12.032 29.297 12.08C29.281 12.096 29.241 12.048 29.177 11.936C29.129 11.808 28.961 11.744 28.673 11.744C28.401 11.744 28.041 11.872 27.593 12.128C27.145 12.384 26.673 12.72 26.177 13.136C25.697 13.552 25.257 14 24.857 14.48C24.473 14.96 24.193 15.424 24.017 15.872C23.985 15.984 23.953 16.096 23.921 16.208C23.889 16.32 23.873 16.416 23.873 16.496C23.873 16.64 23.921 16.712 24.017 16.712C24.113 16.712 24.241 16.656 24.401 16.544C24.737 16.304 25.089 16.008 25.457 15.656C25.825 15.288 26.177 14.912 26.513 14.528C26.865 14.128 27.161 13.752 27.401 13.4C27.641 13.048 27.793 12.76 27.857 12.536C27.889 12.408 28.073 12.344 28.409 12.344C28.681 12.344 28.913 12.408 29.105 12.536C29.297 12.648 29.345 12.776 29.249 12.92C28.961 13.352 28.681 13.808 28.409 14.288C28.137 14.752 27.937 15.224 27.809 15.704C27.793 15.768 27.777 15.824 27.761 15.872C27.761 15.92 27.761 15.96 27.761 15.992C27.761 16.152 27.825 16.232 27.953 16.232C28.097 16.232 28.257 16.16 28.433 16.016C28.769 15.696 29.121 15.288 29.489 14.792C29.873 14.28 30.265 13.776 30.665 13.28C30.809 13.12 30.905 13.04 30.953 13.04C31.001 13.04 31.025 13.08 31.025 13.16C31.025 13.224 31.009 13.288 30.977 13.352C30.913 13.512 30.825 13.68 30.713 13.856C30.601 14.016 30.497 14.16 30.401 14.288C30.321 14.4 30.185 14.6 29.993 14.888C29.801 15.176 29.577 15.48 29.321 15.8C29.065 16.12 28.801 16.4 28.529 16.64C28.257 16.864 28.001 16.976 27.761 16.976C27.425 16.976 27.153 16.872 26.945 16.664C26.753 16.44 26.657 16.24 26.657 16.064C26.657 15.84 26.665 15.688 26.681 15.608C26.713 15.448 26.761 15.256 26.825 15.032C26.905 14.808 26.977 14.592 27.041 14.384C26.913 14.56 26.721 14.808 26.465 15.128C26.209 15.448 25.929 15.776 25.625 16.112C25.337 16.432 25.057 16.704 24.785 16.928C24.513 17.152 24.305 17.264 24.161 17.264ZM37.1818 18.872C36.7018 18.872 36.3818 18.728 36.2218 18.44C36.0778 18.152 36.0058 17.88 36.0058 17.624C36.0058 17.08 36.1258 16.528 36.3658 15.968C36.6218 15.392 36.8938 14.824 37.1818 14.264C37.3098 14.024 37.4538 13.752 37.6138 13.448C37.7738 13.144 37.9098 12.856 38.0218 12.584C38.1338 12.312 38.1898 12.112 38.1898 11.984C38.1898 11.84 38.1258 11.768 37.9978 11.768C37.8058 11.768 37.5738 11.904 37.3018 12.176C37.0298 12.448 36.7338 12.8 36.4138 13.232C36.0938 13.664 35.7818 14.104 35.4778 14.552C35.1898 15 34.9338 15.408 34.7098 15.776C34.5018 16.144 34.3578 16.408 34.2778 16.568C34.1338 16.888 33.9418 17.048 33.7018 17.048C33.4458 17.048 33.1578 16.864 32.8378 16.496C32.9818 16.16 33.1578 15.76 33.3658 15.296C33.5738 14.816 33.7738 14.336 33.9658 13.856C34.1578 13.36 34.2938 12.928 34.3738 12.56C34.3898 12.48 34.3978 12.408 34.3978 12.344C34.4138 12.28 34.4218 12.216 34.4218 12.152C34.4218 11.896 34.3578 11.768 34.2298 11.768C34.1018 11.768 33.9498 11.856 33.7738 12.032C33.5498 12.224 33.2698 12.528 32.9338 12.944C32.6138 13.36 32.2858 13.816 31.9498 14.312C31.6298 14.792 31.3498 15.256 31.1098 15.704C30.8698 16.152 30.7178 16.52 30.6538 16.808C30.6378 16.952 30.5178 17.024 30.2938 17.024C30.0858 17.024 29.9018 16.944 29.7418 16.784C29.5818 16.624 29.5018 16.408 29.5018 16.136C29.5018 16.072 29.5658 15.888 29.6938 15.584C29.8218 15.28 29.9738 14.92 30.1498 14.504C30.3418 14.088 30.5258 13.696 30.7018 13.328C30.8778 12.944 31.0138 12.648 31.1098 12.44C30.9978 12.344 30.9418 12.264 30.9418 12.2C30.9578 12.136 30.9738 12.072 30.9898 12.008L31.6858 10.736C31.7338 10.704 31.8858 10.648 32.1418 10.568C32.3978 10.472 32.6298 10.424 32.8378 10.424C33.1098 10.424 33.2458 10.52 33.2458 10.712C33.2458 10.824 33.1898 10.984 33.0778 11.192C33.0138 11.288 32.8858 11.504 32.6938 11.84C32.5018 12.176 32.2938 12.552 32.0698 12.968C31.8458 13.384 31.6458 13.76 31.4698 14.096C31.3098 14.432 31.2298 14.64 31.2298 14.72C31.2298 14.784 31.2938 14.72 31.4218 14.528C31.5658 14.336 31.7338 14.096 31.9258 13.808C32.1338 13.504 32.3258 13.216 32.5018 12.944C32.6938 12.656 32.8378 12.456 32.9338 12.344C33.1738 12.056 33.3818 11.792 33.5578 11.552C33.7498 11.312 33.9978 11.192 34.3018 11.192C34.7658 11.192 35.1098 11.304 35.3338 11.528C35.5578 11.752 35.6698 12.008 35.6698 12.296C35.6698 12.568 35.5978 12.896 35.4538 13.28C35.3098 13.664 35.1738 14 35.0458 14.288C35.1578 14.192 35.3498 13.96 35.6218 13.592C35.8938 13.208 36.1978 12.8 36.5338 12.368C36.8698 11.936 37.1898 11.56 37.4938 11.24C37.8138 10.92 38.0698 10.76 38.2618 10.76C38.5178 10.76 38.7658 10.824 39.0058 10.952C39.2458 11.08 39.4378 11.24 39.5818 11.432C39.7418 11.624 39.8058 11.824 39.7738 12.032C39.6618 12.576 39.4698 13.048 39.1978 13.448C38.9258 13.832 38.6058 14.288 38.2378 14.816C37.9178 15.312 37.5978 15.848 37.2778 16.424C36.9578 17 36.7978 17.52 36.7978 17.984C36.7978 18.112 36.8138 18.224 36.8458 18.32C36.8938 18.432 36.9578 18.488 37.0378 18.488C37.1178 18.488 37.2378 18.424 37.3978 18.296C37.5258 18.2 37.6458 18.088 37.7578 17.96C37.8858 17.848 38.0058 17.76 38.1178 17.696C38.1978 17.616 38.2538 17.576 38.2858 17.576C38.3818 17.576 38.3898 17.648 38.3098 17.792C38.1818 18.08 38.0298 18.328 37.8538 18.536C37.6778 18.76 37.4538 18.872 37.1818 18.872ZM44.885 10.304C44.581 10.24 44.301 10.08 44.045 9.824C43.805 9.568 43.717 9.28 43.781 8.96C43.813 8.784 43.877 8.672 43.973 8.624C44.069 8.576 44.245 8.536 44.501 8.504C44.789 8.472 44.981 8.448 45.077 8.432C45.189 8.416 45.293 8.4 45.389 8.384C45.501 8.352 45.701 8.312 45.989 8.264C46.053 8.248 46.133 8.208 46.229 8.144C46.325 8.08 46.357 8.12 46.325 8.264C46.325 8.328 46.269 8.408 46.157 8.504C46.061 8.584 45.973 8.64 45.893 8.672C45.717 8.752 45.517 8.848 45.293 8.96C45.085 9.072 44.925 9.224 44.813 9.416C44.765 9.512 44.741 9.6 44.741 9.68C44.741 9.904 44.821 10.032 44.981 10.064C45.013 10.064 45.029 10.088 45.029 10.136C45.029 10.168 45.013 10.208 44.981 10.256C44.949 10.304 44.917 10.32 44.885 10.304ZM41.909 17.336C41.317 17.336 40.901 17.152 40.661 16.784C40.437 16.416 40.325 15.984 40.325 15.488C40.325 14.736 40.461 14.112 40.733 13.616C40.573 13.536 40.533 13.44 40.613 13.328C40.805 13.072 41.029 12.768 41.285 12.416C41.541 12.064 41.789 11.744 42.029 11.456C42.285 11.168 42.493 11 42.653 10.952C42.701 10.936 42.765 10.928 42.845 10.928C43.101 10.928 43.333 11.016 43.541 11.192C43.765 11.368 43.909 11.48 43.973 11.528C43.589 11.912 43.205 12.352 42.821 12.848C42.453 13.344 42.141 13.872 41.885 14.432C41.629 14.992 41.501 15.56 41.501 16.136C41.501 16.344 41.541 16.496 41.621 16.592C41.701 16.672 41.797 16.712 41.909 16.712C42.149 16.712 42.397 16.6 42.653 16.376C42.941 16.12 43.301 15.744 43.733 15.248C44.181 14.736 44.589 14.232 44.957 13.736C45.181 13.416 45.333 13.256 45.413 13.256C45.493 13.256 45.493 13.36 45.413 13.568C45.349 13.776 45.229 14.016 45.053 14.288C44.829 14.592 44.557 14.984 44.237 15.464C43.917 15.928 43.573 16.344 43.205 16.712C42.997 16.92 42.773 17.072 42.533 17.168C42.309 17.28 42.101 17.336 41.909 17.336ZM46.5731 17.408C45.9971 17.408 45.5811 17.24 45.3251 16.904C45.0851 16.568 44.9651 16.12 44.9651 15.56C44.9651 14.856 45.1171 14.032 45.4211 13.088C45.7411 12.144 46.1571 11.152 46.6691 10.112C47.1811 9.072 47.7411 8.064 48.3491 7.088C48.9731 6.096 49.5891 5.2 50.1971 4.4C50.8211 3.6 51.3971 2.976 51.9251 2.528C52.4691 2.064 52.9011 1.848 53.2211 1.88C53.5091 1.912 53.7171 2.008 53.8451 2.168C53.9891 2.312 54.1171 2.472 54.2291 2.648C54.3411 2.808 54.4931 2.936 54.6851 3.032C54.6851 3.432 54.4931 3.92 54.1091 4.496C53.7411 5.072 53.2851 5.688 52.7411 6.344C52.4691 6.664 52.1091 7.088 51.6611 7.616C51.2291 8.144 50.7571 8.712 50.2451 9.32C49.7331 9.928 49.2451 10.528 48.7811 11.12C48.3171 11.712 47.9171 12.24 47.5811 12.704C47.2611 13.152 47.0691 13.48 47.0051 13.688C46.9891 13.8 46.9491 13.856 46.8851 13.856C46.7891 13.856 46.7571 13.776 46.7891 13.616C46.8211 13.408 46.9891 13.064 47.2931 12.584C47.6131 12.088 47.9971 11.528 48.4451 10.904C48.9091 10.28 49.3811 9.664 49.8611 9.056C50.3411 8.432 50.7651 7.896 51.1331 7.448C51.5011 6.984 51.7411 6.68 51.8531 6.536C52.0931 6.248 52.3251 5.968 52.5491 5.696C52.7731 5.408 52.9731 5.136 53.1491 4.88C53.5651 4.304 53.7731 3.888 53.7731 3.632C53.7731 3.488 53.6611 3.488 53.4371 3.632C53.2291 3.76 52.9171 4.072 52.5011 4.568C52.1011 5.032 51.6291 5.616 51.0851 6.32C50.5411 7.008 49.9811 7.76 49.4051 8.576C48.8291 9.392 48.2931 10.232 47.7971 11.096C47.3011 11.96 46.9011 12.8 46.5971 13.616C46.2931 14.416 46.1411 15.144 46.1411 15.8C46.1411 16.2 46.2051 16.48 46.3331 16.64C46.4611 16.8 46.6211 16.88 46.8131 16.88C47.2291 16.88 47.6851 16.608 48.1811 16.064C48.5011 15.744 48.8291 15.344 49.1651 14.864C49.5171 14.384 49.7891 13.976 49.9811 13.64C50.3491 13.016 50.5891 12.704 50.7011 12.704C50.7331 12.704 50.7491 12.728 50.7491 12.776C50.7491 12.792 50.7411 12.816 50.7251 12.848C50.7251 12.88 50.7171 12.92 50.7011 12.968C50.5411 13.544 50.2611 14.128 49.8611 14.72C49.4611 15.312 49.0451 15.856 48.6131 16.352C48.2931 16.736 47.9491 17.008 47.5811 17.168C47.2291 17.328 46.8931 17.408 46.5731 17.408ZM50.2469 17.264C49.9909 17.264 49.7749 17.176 49.5989 17C49.4389 16.84 49.3189 16.648 49.2389 16.424C49.1589 16.2 49.1189 16.008 49.1189 15.848C49.1189 15.304 49.2869 14.728 49.6229 14.12C49.9589 13.512 50.3909 12.944 50.9189 12.416C51.4629 11.888 52.0309 11.456 52.6229 11.12C53.2149 10.784 53.7669 10.616 54.2789 10.616C54.6469 10.616 55.0149 10.864 55.3829 11.36C55.4149 11.408 55.4469 11.472 55.4789 11.552C55.5269 11.632 55.5509 11.712 55.5509 11.792C55.5509 11.936 55.4949 12.032 55.3829 12.08C55.3669 12.096 55.3269 12.048 55.2629 11.936C55.2149 11.808 55.0469 11.744 54.7589 11.744C54.4869 11.744 54.1269 11.872 53.6789 12.128C53.2309 12.384 52.7589 12.72 52.2629 13.136C51.7829 13.552 51.3429 14 50.9429 14.48C50.5589 14.96 50.2789 15.424 50.1029 15.872C50.0709 15.984 50.0389 16.096 50.0069 16.208C49.9749 16.32 49.9589 16.416 49.9589 16.496C49.9589 16.64 50.0069 16.712 50.1029 16.712C50.1989 16.712 50.3269 16.656 50.4869 16.544C50.8229 16.304 51.1749 16.008 51.5429 15.656C51.9109 15.288 52.2629 14.912 52.5989 14.528C52.9509 14.128 53.2469 13.752 53.4869 13.4C53.7269 13.048 53.8789 12.76 53.9429 12.536C53.9749 12.408 54.1589 12.344 54.4949 12.344C54.7669 12.344 54.9989 12.408 55.1909 12.536C55.3829 12.648 55.4309 12.776 55.3349 12.92C55.0469 13.352 54.7669 13.808 54.4949 14.288C54.2229 14.752 54.0229 15.224 53.8949 15.704C53.8789 15.768 53.8629 15.824 53.8469 15.872C53.8469 15.92 53.8469 15.96 53.8469 15.992C53.8469 16.152 53.9109 16.232 54.0389 16.232C54.1829 16.232 54.3429 16.16 54.5189 16.016C54.8549 15.696 55.2069 15.288 55.5749 14.792C55.9589 14.28 56.3509 13.776 56.7509 13.28C56.8949 13.12 56.9909 13.04 57.0389 13.04C57.0869 13.04 57.1109 13.08 57.1109 13.16C57.1109 13.224 57.0949 13.288 57.0629 13.352C56.9989 13.512 56.9109 13.68 56.7989 13.856C56.6869 14.016 56.5829 14.16 56.4869 14.288C56.4069 14.4 56.2709 14.6 56.0789 14.888C55.8869 15.176 55.6629 15.48 55.4069 15.8C55.1509 16.12 54.8869 16.4 54.6149 16.64C54.3429 16.864 54.0869 16.976 53.8469 16.976C53.5109 16.976 53.2389 16.872 53.0309 16.664C52.8389 16.44 52.7429 16.24 52.7429 16.064C52.7429 15.84 52.7509 15.688 52.7669 15.608C52.7989 15.448 52.8469 15.256 52.9109 15.032C52.9909 14.808 53.0629 14.592 53.1269 14.384C52.9989 14.56 52.8069 14.808 52.5509 15.128C52.2949 15.448 52.0149 15.776 51.7109 16.112C51.4229 16.432 51.1429 16.704 50.8709 16.928C50.5989 17.152 50.3909 17.264 50.2469 17.264ZM77.5949 22.208C77.0189 22.032 76.5789 21.856 76.2749 21.68C75.9869 21.504 75.8429 21.264 75.8429 20.96C75.8429 20.608 76.0829 20.12 76.5629 19.496C78.1629 17.448 79.2749 15.776 79.8989 14.48C80.5229 13.184 80.8349 12.208 80.8349 11.552C80.8349 11.04 80.6909 10.696 80.4029 10.52C80.1789 10.36 79.8989 10.256 79.5629 10.208C79.2269 10.144 78.8589 10.112 78.4589 10.112C78.0589 10.112 77.6429 10.136 77.2109 10.184C76.1709 11.112 75.2189 12.024 74.3549 12.92C73.5069 13.816 72.7709 14.648 72.1469 15.416C72.0989 15.48 72.0349 15.512 71.9549 15.512C71.9069 15.512 71.8669 15.496 71.8349 15.464C71.8029 15.416 71.8109 15.36 71.8589 15.296C72.4669 14.528 73.1389 13.72 73.8749 12.872C74.6109 12.024 75.4029 11.168 76.2509 10.304C76.0589 10.336 75.8749 10.368 75.6989 10.4C75.5229 10.416 75.3549 10.44 75.1949 10.472C74.5869 11.144 74.0029 11.816 73.4429 12.488C72.8829 13.144 72.4109 13.776 72.0269 14.384C71.9629 14.464 71.8429 14.656 71.6669 14.96C71.5069 15.248 71.3549 15.528 71.2109 15.8C71.2429 15.8 71.2749 15.808 71.3069 15.824C71.3389 15.824 71.3869 15.824 71.4509 15.824C71.5789 15.824 71.6429 15.88 71.6429 15.992C71.6429 16.152 71.5469 16.408 71.3549 16.76C71.1629 17.112 70.9789 17.472 70.8029 17.84C70.7069 17.984 70.5309 18.056 70.2749 18.056C70.0669 18.056 69.8509 17.968 69.6269 17.792C69.4189 17.632 69.3149 17.368 69.3149 17C69.3149 16.84 69.4109 16.568 69.6029 16.184C69.8109 15.8 70.0749 15.344 70.3949 14.816C70.7309 14.288 71.0909 13.736 71.4749 13.16C71.8589 12.584 72.2429 12.024 72.6269 11.48C72.9309 11.048 73.3229 10.528 73.8029 9.92C74.2829 9.312 74.7949 8.664 75.3389 7.976C75.8829 7.288 76.4109 6.6 76.9229 5.912C77.4349 5.224 77.8829 4.592 78.2669 4.016C78.4909 3.68 78.6829 3.376 78.8429 3.104C79.0029 2.816 79.0829 2.568 79.0829 2.36C79.0829 2.168 78.9709 2.016 78.7469 1.904C78.5389 1.792 78.1789 1.736 77.6669 1.736C77.2029 1.736 76.5709 1.808 75.7709 1.952C74.9709 2.08 74.0749 2.272 73.0829 2.528C72.0909 2.768 71.0669 3.056 70.0109 3.392C68.9709 3.728 67.9469 4.096 66.9389 4.496C65.9469 4.88 65.0429 5.288 64.2269 5.72C63.4109 6.136 62.7549 6.56 62.2589 6.992C61.9869 7.232 61.8509 7.448 61.8509 7.64C61.8509 7.912 62.0589 8.048 62.4749 8.048C62.5549 8.096 62.5949 8.144 62.5949 8.192C62.5949 8.304 62.4349 8.336 62.1149 8.288C61.9869 8.256 61.7709 8.168 61.4669 8.024C61.1789 7.864 60.9069 7.672 60.6509 7.448C60.4109 7.208 60.2909 6.976 60.2909 6.752C60.2909 6.432 60.5789 6.08 61.1549 5.696C61.7469 5.296 62.5309 4.888 63.5069 4.472C64.4829 4.056 65.5789 3.656 66.7949 3.272C68.0109 2.888 69.2669 2.544 70.5629 2.24C71.8589 1.936 73.1069 1.696 74.3069 1.52C75.5069 1.328 76.5709 1.232 77.4989 1.232C77.9149 1.232 78.2989 1.256 78.6509 1.304C79.0029 1.336 79.3069 1.4 79.5629 1.496C80.4109 1.816 80.8349 2.336 80.8349 3.056C80.8349 3.68 80.5069 4.44 79.8509 5.336C79.4509 5.896 78.8589 6.592 78.0749 7.424C77.2909 8.24 76.4669 9.112 75.6029 10.04C75.7789 10.008 75.9549 9.976 76.1309 9.944C76.3229 9.912 76.5069 9.888 76.6829 9.872C77.9149 8.64 79.2109 7.456 80.5709 6.32C81.9309 5.168 83.3149 4.136 84.7229 3.224C86.1469 2.312 87.5469 1.592 88.9229 1.064C90.2989 0.52 91.6029 0.248 92.8349 0.248C93.3469 0.248 93.8109 0.36 94.2269 0.584C94.6429 0.808 94.9309 1.056 95.0909 1.328C95.1069 1.36 95.1149 1.4 95.1149 1.448C95.1149 1.512 95.0829 1.568 95.0189 1.616C94.9549 1.664 94.8989 1.648 94.8509 1.568C94.7069 1.312 94.4989 1.128 94.2269 1.016C93.9709 0.903999 93.6669 0.847999 93.3149 0.847999C92.7229 0.847999 92.0349 0.983999 91.2509 1.256C90.4669 1.512 89.6509 1.848 88.8029 2.264C87.9709 2.664 87.1549 3.096 86.3549 3.56C85.5549 4.024 84.8429 4.464 84.2189 4.88C83.0189 5.648 81.8749 6.448 80.7869 7.28C79.6989 8.096 78.6749 8.92 77.7149 9.752C78.2269 9.704 78.7069 9.68 79.1549 9.68C80.0669 9.68 80.8349 9.832 81.4589 10.136C82.0829 10.424 82.3949 10.976 82.3949 11.792C82.3949 12.288 82.2509 12.904 81.9629 13.64C81.6909 14.376 81.2269 15.256 80.5709 16.28C80.4109 16.552 80.1549 16.936 79.8029 17.432C79.4669 17.928 79.1149 18.448 78.7469 18.992C78.3789 19.552 78.0669 20.056 77.8109 20.504C77.5549 20.952 77.4269 21.272 77.4269 21.464C77.4269 21.672 77.5149 21.808 77.6909 21.872C77.7869 21.888 77.8349 21.944 77.8349 22.04C77.8349 22.088 77.8109 22.128 77.7629 22.16C77.7309 22.208 77.6749 22.224 77.5949 22.208ZM88.5959 10.304C88.2919 10.24 88.0119 10.08 87.7559 9.824C87.5159 9.568 87.4279 9.28 87.4919 8.96C87.5239 8.784 87.5879 8.672 87.6839 8.624C87.7799 8.576 87.9559 8.536 88.2119 8.504C88.4999 8.472 88.6919 8.448 88.7879 8.432C88.8999 8.416 89.0039 8.4 89.0999 8.384C89.2119 8.352 89.4119 8.312 89.6999 8.264C89.7639 8.248 89.8439 8.208 89.9399 8.144C90.0359 8.08 90.0679 8.12 90.0359 8.264C90.0359 8.328 89.9799 8.408 89.8679 8.504C89.7719 8.584 89.6839 8.64 89.6039 8.672C89.4279 8.752 89.2279 8.848 89.0039 8.96C88.7959 9.072 88.6359 9.224 88.5239 9.416C88.4759 9.512 88.4519 9.6 88.4519 9.68C88.4519 9.904 88.5319 10.032 88.6919 10.064C88.7239 10.064 88.7399 10.088 88.7399 10.136C88.7399 10.168 88.7239 10.208 88.6919 10.256C88.6599 10.304 88.6279 10.32 88.5959 10.304ZM85.6199 17.336C85.0279 17.336 84.6119 17.152 84.3719 16.784C84.1479 16.416 84.0359 15.984 84.0359 15.488C84.0359 14.736 84.1719 14.112 84.4439 13.616C84.2839 13.536 84.2439 13.44 84.3239 13.328C84.5159 13.072 84.7399 12.768 84.9959 12.416C85.2519 12.064 85.4999 11.744 85.7399 11.456C85.9959 11.168 86.2039 11 86.3639 10.952C86.4119 10.936 86.4759 10.928 86.5559 10.928C86.8119 10.928 87.0439 11.016 87.2519 11.192C87.4759 11.368 87.6199 11.48 87.6839 11.528C87.2999 11.912 86.9159 12.352 86.5319 12.848C86.1639 13.344 85.8519 13.872 85.5959 14.432C85.3399 14.992 85.2119 15.56 85.2119 16.136C85.2119 16.344 85.2519 16.496 85.3319 16.592C85.4119 16.672 85.5079 16.712 85.6199 16.712C85.8599 16.712 86.1079 16.6 86.3639 16.376C86.6519 16.12 87.0119 15.744 87.4439 15.248C87.8919 14.736 88.2999 14.232 88.6679 13.736C88.8919 13.416 89.0439 13.256 89.1239 13.256C89.2039 13.256 89.2039 13.36 89.1239 13.568C89.0599 13.776 88.9399 14.016 88.7639 14.288C88.5399 14.592 88.2679 14.984 87.9479 15.464C87.6279 15.928 87.2839 16.344 86.9159 16.712C86.7079 16.92 86.4839 17.072 86.2439 17.168C86.0199 17.28 85.8119 17.336 85.6199 17.336ZM95.588 18.872C95.108 18.872 94.788 18.728 94.628 18.44C94.484 18.152 94.412 17.88 94.412 17.624C94.412 17.08 94.532 16.528 94.772 15.968C95.028 15.392 95.3 14.824 95.588 14.264C95.716 14.024 95.86 13.752 96.02 13.448C96.18 13.144 96.316 12.856 96.428 12.584C96.54 12.312 96.596 12.112 96.596 11.984C96.596 11.84 96.532 11.768 96.404 11.768C96.212 11.768 95.98 11.904 95.708 12.176C95.436 12.448 95.14 12.8 94.82 13.232C94.5 13.664 94.188 14.104 93.884 14.552C93.596 15 93.34 15.408 93.116 15.776C92.908 16.144 92.764 16.408 92.684 16.568C92.54 16.888 92.348 17.048 92.108 17.048C91.852 17.048 91.564 16.864 91.244 16.496C91.388 16.16 91.564 15.76 91.772 15.296C91.98 14.816 92.18 14.336 92.372 13.856C92.564 13.36 92.7 12.928 92.78 12.56C92.796 12.48 92.804 12.408 92.804 12.344C92.82 12.28 92.828 12.216 92.828 12.152C92.828 11.896 92.764 11.768 92.636 11.768C92.508 11.768 92.356 11.856 92.18 12.032C91.956 12.224 91.676 12.528 91.34 12.944C91.02 13.36 90.692 13.816 90.356 14.312C90.036 14.792 89.756 15.256 89.516 15.704C89.276 16.152 89.124 16.52 89.06 16.808C89.044 16.952 88.924 17.024 88.7 17.024C88.492 17.024 88.308 16.944 88.148 16.784C87.988 16.624 87.908 16.408 87.908 16.136C87.908 16.072 87.972 15.888 88.1 15.584C88.228 15.28 88.38 14.92 88.556 14.504C88.748 14.088 88.932 13.696 89.108 13.328C89.284 12.944 89.42 12.648 89.516 12.44C89.404 12.344 89.348 12.264 89.348 12.2C89.364 12.136 89.38 12.072 89.396 12.008L90.092 10.736C90.14 10.704 90.292 10.648 90.548 10.568C90.804 10.472 91.036 10.424 91.244 10.424C91.516 10.424 91.652 10.52 91.652 10.712C91.652 10.824 91.596 10.984 91.484 11.192C91.42 11.288 91.292 11.504 91.1 11.84C90.908 12.176 90.7 12.552 90.476 12.968C90.252 13.384 90.052 13.76 89.876 14.096C89.716 14.432 89.636 14.64 89.636 14.72C89.636 14.784 89.7 14.72 89.828 14.528C89.972 14.336 90.14 14.096 90.332 13.808C90.54 13.504 90.732 13.216 90.908 12.944C91.1 12.656 91.244 12.456 91.34 12.344C91.58 12.056 91.788 11.792 91.964 11.552C92.156 11.312 92.404 11.192 92.708 11.192C93.172 11.192 93.516 11.304 93.74 11.528C93.964 11.752 94.076 12.008 94.076 12.296C94.076 12.568 94.004 12.896 93.86 13.28C93.716 13.664 93.58 14 93.452 14.288C93.564 14.192 93.756 13.96 94.028 13.592C94.3 13.208 94.604 12.8 94.94 12.368C95.276 11.936 95.596 11.56 95.9 11.24C96.22 10.92 96.476 10.76 96.668 10.76C96.924 10.76 97.172 10.824 97.412 10.952C97.652 11.08 97.844 11.24 97.988 11.432C98.148 11.624 98.212 11.824 98.18 12.032C98.068 12.576 97.876 13.048 97.604 13.448C97.332 13.832 97.012 14.288 96.644 14.816C96.324 15.312 96.004 15.848 95.684 16.424C95.364 17 95.204 17.52 95.204 17.984C95.204 18.112 95.22 18.224 95.252 18.32C95.3 18.432 95.364 18.488 95.444 18.488C95.524 18.488 95.644 18.424 95.804 18.296C95.932 18.2 96.052 18.088 96.164 17.96C96.292 17.848 96.412 17.76 96.524 17.696C96.604 17.616 96.66 17.576 96.692 17.576C96.788 17.576 96.796 17.648 96.716 17.792C96.588 18.08 96.436 18.328 96.26 18.536C96.084 18.76 95.86 18.872 95.588 18.872ZM107.107 17.36C106.627 17.36 106.163 17.288 105.715 17.144C105.283 17 104.931 16.776 104.659 16.472C104.387 16.152 104.251 15.744 104.251 15.248C104.251 15.12 104.259 14.992 104.275 14.864C104.291 14.72 104.323 14.576 104.371 14.432C104.419 14.256 104.483 14.104 104.562 13.976C104.659 13.832 104.747 13.728 104.827 13.664C104.955 13.568 105.043 13.52 105.09 13.52C105.139 13.52 105.163 13.552 105.163 13.616C105.163 13.744 105.107 13.864 104.995 13.976C104.931 14.056 104.899 14.24 104.899 14.528C104.899 14.736 104.915 14.904 104.947 15.032C105.091 15.416 105.355 15.688 105.739 15.848C106.139 15.992 106.563 16.064 107.011 16.064C107.491 16.064 107.963 16.008 108.427 15.896C108.891 15.784 109.259 15.648 109.531 15.488C109.979 15.248 110.291 15.016 110.467 14.792C110.659 14.568 110.755 14.352 110.755 14.144C110.755 13.776 110.539 13.408 110.107 13.04C109.675 12.672 109.179 12.28 108.618 11.864C108.235 11.56 107.843 11.24 107.443 10.904C107.059 10.568 106.739 10.184 106.483 9.752C106.227 9.32 106.099 8.832 106.099 8.288C106.099 7.616 106.259 6.952 106.579 6.296C106.899 5.64 107.331 5.024 107.875 4.448C108.419 3.872 109.019 3.36 109.675 2.912C110.347 2.464 111.027 2.12 111.715 1.88C112.419 1.624 113.091 1.496 113.731 1.496C114.083 1.496 114.467 1.536 114.883 1.616C115.315 1.696 115.667 1.84 115.939 2.048C116.339 2.32 116.539 2.68 116.539 3.128C116.539 3.32 116.491 3.52 116.395 3.728C116.315 3.936 116.171 4.152 115.963 4.376C115.707 4.632 115.491 4.76 115.315 4.76C115.283 4.76 115.243 4.728 115.195 4.664C115.163 4.6 115.155 4.56 115.171 4.544C115.283 4.496 115.371 4.44 115.435 4.376C115.515 4.296 115.587 4.224 115.651 4.16C115.827 3.936 115.915 3.728 115.915 3.536C115.915 3.312 115.811 3.144 115.603 3.032C115.395 2.904 115.147 2.816 114.859 2.768C114.587 2.704 114.331 2.672 114.091 2.672C113.355 2.672 112.611 2.84 111.859 3.176C111.123 3.496 110.443 3.944 109.819 4.52C109.195 5.08 108.683 5.712 108.283 6.416C107.899 7.12 107.691 7.856 107.659 8.624C107.643 9.216 107.771 9.712 108.043 10.112C108.315 10.512 108.651 10.872 109.051 11.192C109.387 11.448 109.715 11.704 110.035 11.96C110.371 12.2 110.651 12.488 110.875 12.824C111.099 13.144 111.211 13.552 111.211 14.048C111.211 14.64 111.019 15.184 110.635 15.68C110.251 16.16 109.803 16.544 109.291 16.832C108.667 17.184 107.939 17.36 107.107 17.36ZM113.966 17.336C113.614 17.336 113.302 17.2 113.03 16.928C112.758 16.656 112.622 16.24 112.622 15.68C112.622 15.296 112.71 14.832 112.886 14.288C113.078 13.728 113.31 13.16 113.582 12.584C113.87 11.992 114.158 11.44 114.446 10.928C114.75 10.4 115.006 9.968 115.214 9.632H114.206C113.966 9.632 113.846 9.552 113.846 9.392C113.846 9.312 113.878 9.24 113.942 9.176C114.006 9.112 114.078 9.08 114.158 9.08H115.574C115.638 8.984 115.734 8.824 115.862 8.6C116.006 8.36 116.15 8.104 116.294 7.832C116.454 7.544 116.582 7.296 116.678 7.088C116.79 6.88 116.846 6.752 116.846 6.704C116.846 6.608 116.806 6.544 116.726 6.512C116.662 6.48 116.614 6.448 116.582 6.416C116.534 6.336 116.51 6.28 116.51 6.248C116.51 6.168 116.55 6.112 116.63 6.08C116.71 6.032 116.782 6.008 116.846 6.008C116.99 6.008 117.198 6.08 117.47 6.224C117.758 6.352 118.03 6.488 118.286 6.632C118.558 6.76 118.726 6.832 118.79 6.848C118.726 6.96 118.59 7.168 118.382 7.472C118.174 7.76 117.966 8.064 117.758 8.384C117.55 8.688 117.398 8.92 117.302 9.08L121.094 9.056C121.382 9.056 121.526 9.112 121.526 9.224C121.526 9.304 121.454 9.392 121.31 9.488C121.166 9.568 121.022 9.616 120.878 9.632C120.542 9.648 120.11 9.664 119.582 9.68C119.07 9.68 118.582 9.688 118.118 9.704C117.67 9.72 117.366 9.752 117.206 9.8C116.998 9.864 116.758 10.064 116.486 10.4C116.23 10.72 115.958 11.112 115.67 11.576C115.398 12.04 115.134 12.52 114.878 13.016C114.622 13.512 114.406 13.968 114.23 14.384C114.054 14.784 113.942 15.088 113.894 15.296C113.862 15.44 113.838 15.576 113.822 15.704C113.806 15.816 113.798 15.92 113.798 16.016C113.798 16.24 113.838 16.4 113.918 16.496C114.014 16.576 114.118 16.616 114.23 16.616C114.438 16.616 114.622 16.536 114.782 16.376C115.07 16.12 115.43 15.744 115.862 15.248C116.31 14.736 116.718 14.232 117.086 13.736C117.31 13.416 117.462 13.256 117.542 13.256C117.622 13.256 117.622 13.36 117.542 13.568C117.462 13.776 117.334 14.016 117.158 14.288C116.95 14.592 116.686 14.984 116.366 15.464C116.046 15.928 115.702 16.344 115.334 16.712C114.918 17.128 114.462 17.336 113.966 17.336ZM117.611 17.072C117.275 17.072 116.995 17 116.771 16.856C116.563 16.712 116.459 16.512 116.459 16.256C116.459 15.888 116.571 15.456 116.795 14.96C117.019 14.448 117.227 13.992 117.419 13.592C117.403 13.544 117.379 13.496 117.347 13.448C117.331 13.384 117.355 13.312 117.419 13.232C117.819 12.64 118.203 12.128 118.571 11.696C118.939 11.248 119.203 11.024 119.363 11.024C119.507 11.024 119.691 11.104 119.915 11.264C120.139 11.408 120.323 11.552 120.467 11.696C120.195 12.032 119.891 12.416 119.555 12.848C119.235 13.264 118.939 13.696 118.667 14.144C118.395 14.576 118.187 14.984 118.043 15.368C117.963 15.64 117.923 15.808 117.923 15.872C117.923 15.984 117.955 16.04 118.019 16.04C118.131 16.04 118.315 15.912 118.571 15.656C118.939 15.288 119.339 14.824 119.771 14.264C120.203 13.688 120.619 13.12 121.019 12.56C121.419 12 121.747 11.568 122.003 11.264C122.195 11.024 122.395 10.904 122.603 10.904C122.779 10.904 122.947 10.968 123.107 11.096C123.283 11.224 123.451 11.384 123.611 11.576C123.387 11.864 123.107 12.256 122.771 12.752C122.451 13.232 122.155 13.728 121.883 14.24C121.611 14.752 121.435 15.2 121.355 15.584C121.339 15.648 121.323 15.72 121.307 15.8C121.307 15.88 121.307 15.952 121.307 16.016C121.307 16.256 121.371 16.376 121.499 16.376C121.611 16.376 121.763 16.288 121.955 16.112C122.195 15.888 122.443 15.6 122.699 15.248C122.955 14.896 123.235 14.528 123.539 14.144C123.667 14 123.779 13.864 123.875 13.736C123.987 13.592 124.099 13.448 124.211 13.304C124.451 13 124.603 12.848 124.667 12.848C124.715 12.848 124.699 12.936 124.619 13.112C124.555 13.288 124.459 13.488 124.331 13.712C124.203 13.936 124.075 14.136 123.947 14.312C123.803 14.536 123.643 14.784 123.467 15.056C123.291 15.312 123.099 15.56 122.891 15.8C122.651 16.088 122.419 16.352 122.195 16.592C121.971 16.832 121.715 16.952 121.427 16.952C120.963 16.952 120.611 16.84 120.371 16.616C120.147 16.392 120.035 16.136 120.035 15.848C120.035 15.576 120.107 15.248 120.251 14.864C120.411 14.48 120.547 14.144 120.659 13.856C120.547 13.952 120.363 14.176 120.107 14.528C119.867 14.864 119.587 15.232 119.267 15.632C118.963 16.016 118.659 16.352 118.355 16.64C118.051 16.928 117.803 17.072 117.611 17.072ZM124.623 17.264C124.367 17.264 124.119 17.176 123.879 17C123.655 16.84 123.471 16.648 123.327 16.424C123.199 16.2 123.135 16.008 123.135 15.848C123.135 15.304 123.303 14.728 123.639 14.12C123.975 13.512 124.407 12.944 124.935 12.416C125.479 11.888 126.047 11.456 126.639 11.12C127.231 10.784 127.783 10.616 128.295 10.616C128.503 10.616 128.679 10.68 128.823 10.808C129.223 9.976 129.655 9.136 130.119 8.288C130.599 7.44 131.095 6.64 131.607 5.888C132.119 5.12 132.615 4.456 133.095 3.896C133.975 2.856 134.887 2.136 135.831 1.736C136.775 1.336 137.759 1.136 138.783 1.136C139.119 1.136 139.487 1.192 139.887 1.304C140.303 1.4 140.583 1.512 140.727 1.64C140.775 1.688 140.799 1.728 140.799 1.76C140.799 1.824 140.759 1.872 140.679 1.904C140.615 1.936 140.543 1.928 140.463 1.88C140.255 1.752 140.047 1.656 139.839 1.592C139.647 1.528 139.407 1.496 139.119 1.496C138.431 1.496 137.679 1.808 136.863 2.432C136.047 3.04 135.223 3.816 134.391 4.76C133.591 5.656 132.831 6.624 132.111 7.664C131.391 8.704 130.751 9.736 130.191 10.76C129.631 11.784 129.191 12.736 128.871 13.616C128.551 14.496 128.391 15.224 128.391 15.8C128.391 16.152 128.439 16.392 128.535 16.52C128.647 16.648 128.767 16.712 128.895 16.712C129.023 16.712 129.143 16.68 129.255 16.616C129.383 16.552 129.495 16.48 129.591 16.4C129.895 16.144 130.263 15.76 130.695 15.248C131.127 14.736 131.519 14.232 131.871 13.736C132.127 13.416 132.287 13.256 132.351 13.256C132.431 13.256 132.431 13.36 132.351 13.568C132.271 13.776 132.143 14.016 131.967 14.288C131.759 14.592 131.495 14.96 131.175 15.392C130.855 15.824 130.511 16.224 130.143 16.592C129.695 17.008 129.255 17.216 128.823 17.216C128.439 17.216 128.111 17.064 127.839 16.76C127.567 16.456 127.431 16.032 127.431 15.488C127.431 15.136 127.463 14.808 127.527 14.504C127.255 14.92 126.951 15.344 126.615 15.776C126.279 16.208 125.935 16.568 125.583 16.856C125.247 17.128 124.927 17.264 124.623 17.264ZM124.431 16.736C124.543 16.736 124.687 16.672 124.863 16.544C125.151 16.336 125.471 16.048 125.823 15.68C126.175 15.312 126.527 14.912 126.879 14.48C127.231 14.032 127.543 13.616 127.815 13.232C127.895 12.992 127.983 12.752 128.079 12.512C128.175 12.272 128.271 12.024 128.367 11.768C128.255 11.8 128.135 11.84 128.007 11.888C127.879 11.936 127.759 11.992 127.647 12.056C127.215 12.296 126.759 12.632 126.279 13.064C125.799 13.496 125.359 13.96 124.959 14.456C124.575 14.936 124.295 15.408 124.119 15.872C124.071 15.984 124.047 16.104 124.047 16.232C124.047 16.568 124.175 16.736 124.431 16.736ZM136.479 10.304C136.175 10.24 135.895 10.08 135.639 9.824C135.399 9.568 135.311 9.28 135.375 8.96C135.407 8.784 135.471 8.672 135.567 8.624C135.663 8.576 135.839 8.536 136.095 8.504C136.383 8.472 136.575 8.448 136.671 8.432C136.783 8.416 136.887 8.4 136.983 8.384C137.095 8.352 137.295 8.312 137.583 8.264C137.647 8.248 137.727 8.208 137.823 8.144C137.919 8.08 137.951 8.12 137.919 8.264C137.919 8.328 137.863 8.408 137.751 8.504C137.655 8.584 137.567 8.64 137.487 8.672C137.311 8.752 137.111 8.848 136.887 8.96C136.679 9.072 136.519 9.224 136.407 9.416C136.359 9.512 136.335 9.6 136.335 9.68C136.335 9.904 136.415 10.032 136.575 10.064C136.607 10.064 136.623 10.088 136.623 10.136C136.623 10.168 136.607 10.208 136.575 10.256C136.543 10.304 136.511 10.32 136.479 10.304ZM133.503 17.336C132.911 17.336 132.495 17.152 132.255 16.784C132.031 16.416 131.919 15.984 131.919 15.488C131.919 14.736 132.055 14.112 132.327 13.616C132.167 13.536 132.127 13.44 132.207 13.328C132.399 13.072 132.623 12.768 132.879 12.416C133.135 12.064 133.383 11.744 133.623 11.456C133.879 11.168 134.087 11 134.247 10.952C134.295 10.936 134.359 10.928 134.439 10.928C134.695 10.928 134.927 11.016 135.135 11.192C135.359 11.368 135.503 11.48 135.567 11.528C135.183 11.912 134.799 12.352 134.415 12.848C134.047 13.344 133.735 13.872 133.479 14.432C133.223 14.992 133.095 15.56 133.095 16.136C133.095 16.344 133.135 16.496 133.215 16.592C133.295 16.672 133.391 16.712 133.503 16.712C133.743 16.712 133.991 16.6 134.247 16.376C134.535 16.12 134.895 15.744 135.327 15.248C135.775 14.736 136.183 14.232 136.551 13.736C136.775 13.416 136.927 13.256 137.007 13.256C137.087 13.256 137.087 13.36 137.007 13.568C136.943 13.776 136.823 14.016 136.647 14.288C136.423 14.592 136.151 14.984 135.831 15.464C135.511 15.928 135.167 16.344 134.799 16.712C134.591 16.92 134.367 17.072 134.127 17.168C133.903 17.28 133.695 17.336 133.503 17.336ZM137.975 17.36C137.447 17.36 137.007 17.176 136.655 16.808C136.319 16.44 136.151 15.952 136.151 15.344C136.151 14.832 136.271 14.32 136.511 13.808C136.751 13.28 137.015 12.824 137.303 12.44C137.735 11.88 138.231 11.408 138.791 11.024C139.367 10.64 139.903 10.448 140.399 10.448C140.575 10.448 140.735 10.552 140.879 10.76C141.039 10.952 141.247 11.064 141.503 11.096C141.567 11.112 141.631 11.136 141.695 11.168C141.775 11.184 141.855 11.256 141.935 11.384C142.143 11.736 142.247 12.112 142.247 12.512C142.247 13.104 142.055 13.744 141.671 14.432C141.303 15.12 140.815 15.736 140.207 16.28C139.903 16.552 139.559 16.8 139.175 17.024C138.791 17.248 138.391 17.36 137.975 17.36ZM138.023 16.88C138.407 16.88 138.815 16.728 139.247 16.424C139.679 16.104 140.079 15.712 140.447 15.248C140.831 14.768 141.135 14.28 141.359 13.784C141.599 13.272 141.719 12.824 141.719 12.44C141.719 12.136 141.647 11.912 141.503 11.768C141.359 11.608 141.175 11.528 140.951 11.528C140.551 11.528 140.143 11.728 139.727 12.128C139.311 12.528 138.903 12.984 138.503 13.496C138.151 13.944 137.839 14.408 137.567 14.888C137.311 15.368 137.183 15.784 137.183 16.136C137.183 16.392 137.271 16.584 137.447 16.712C137.623 16.824 137.815 16.88 138.023 16.88Z" fill="black"/>
</svg>
