<svg width="190" height="19" viewBox="0 0 190 19" fill="none" xmlns="http://www.w3.org/2000/svg">
<path d="M32.5273 2.51953C32.5273 2.84766 32.418 3.14062 32.1992 3.39844C31.9883 3.64844 31.7227 3.77344 31.4023 3.77344C30.8867 3.77344 30.6289 3.5 30.6289 2.95312C30.6289 2.85156 30.6836 2.67969 30.793 2.4375C30.9102 2.19531 30.9688 2.03125 30.9688 1.94531C30.9688 1.57813 30.6328 1.39453 29.9609 1.39453C29.25 1.39453 28.3125 1.94531 27.1484 3.04688C26.7266 3.44531 25.9609 4.26953 24.8516 5.51953C22.9297 7.68359 20.8555 9.1875 18.6289 10.0312C19.2852 10.5547 19.7539 11.0586 20.0352 11.543C20.3477 12.0898 20.5039 12.7539 20.5039 13.5352C20.5039 13.7695 20.4883 14.1172 20.457 14.5781C20.4258 15.0391 20.4102 15.3867 20.4102 15.6211C20.4102 17.0508 20.9531 17.7656 22.0391 17.7656C23.2812 17.7656 24.3281 17.332 25.1797 16.4648C26.0312 15.5977 26.457 14.543 26.457 13.3008C26.457 12.707 26.3242 12.1836 26.0586 11.7305C25.7461 11.1914 25.3125 10.9219 24.7578 10.9219C24.1172 10.9219 23.3242 11.3867 22.3789 12.3164C22.2773 12.3008 22.2266 12.2578 22.2266 12.1875C22.2266 11.8203 22.6133 11.4102 23.3867 10.957C24.1133 10.5352 24.6875 10.3242 25.1094 10.3242C25.8672 10.3242 26.4727 10.5742 26.9258 11.0742C27.3789 11.5664 27.6055 12.1953 27.6055 12.9609C27.6055 14.3906 26.9727 15.625 25.707 16.6641C24.5117 17.6484 23.1836 18.1406 21.7227 18.1406C20.7617 18.1406 20.0117 17.8242 19.4727 17.1914C18.957 16.5977 18.6992 15.8125 18.6992 14.8359C18.6992 14.5625 18.7148 14.1602 18.7461 13.6289C18.7852 13.0898 18.8047 12.6836 18.8047 12.4102C18.8047 11.3945 18.5781 10.6836 18.125 10.2773C17.3594 10.6133 16.5586 10.8438 15.7227 10.9688C14.5273 13.0547 13.1445 14.707 11.5742 15.9258C9.71484 17.3711 7.72266 18.0938 5.59766 18.0938C3.98047 18.0938 2.6875 17.6406 1.71875 16.7344C0.71875 15.8125 0.21875 14.5469 0.21875 12.9375C0.21875 12.3125 0.316406 11.7695 0.511719 11.3086C0.777344 10.6836 1.17578 10.3711 1.70703 10.3711C2.25391 10.3711 2.52734 10.6328 2.52734 11.1562C2.52734 11.6094 2.35547 11.9258 2.01172 12.1055C1.70703 12.1914 1.40234 12.2812 1.09766 12.375C0.722656 12.5312 0.535156 12.7422 0.535156 13.0078C0.535156 13.7344 1.10156 14.6055 2.23438 15.6211C3.46094 16.7148 5.01562 17.2617 6.89844 17.2617C8.70312 17.2617 10.3125 16.6289 11.7266 15.3633C12.7969 14.4023 13.8438 12.9766 14.8672 11.0859C13.0391 11.0859 12.125 10.6484 12.125 9.77344C12.125 8.98438 12.7969 8.58984 14.1406 8.58984C14.8281 8.58984 15.4688 8.67188 16.0625 8.83594C16.9297 7.39844 17.4883 6.49609 17.7383 6.12891C18.3945 5.14453 19.043 4.30859 19.6836 3.62109C18.3242 4.48828 17.0781 4.92188 15.9453 4.92188C15.3203 4.92188 14.8438 4.66797 14.5156 4.16016C14.4297 4.01953 14.2383 3.54297 13.9414 2.73047C13.7617 2.22266 13.5352 1.96875 13.2617 1.96875C12.7773 1.96875 12.1602 2.41406 11.4102 3.30469C10.8164 4.01562 10.3516 4.69922 10.0156 5.35547C9.95312 5.48047 9.75391 5.98438 9.41797 6.86719C9.12891 7.63281 8.95312 8.01562 8.89062 8.01562C8.78906 8.01562 8.73828 7.97656 8.73828 7.89844C8.73828 7.48438 8.9375 6.83984 9.33594 5.96484C9.85156 4.83203 10.4844 3.82031 11.2344 2.92969C12.25 1.72656 13.2109 1.125 14.1172 1.125C14.6016 1.125 15.0156 1.39844 15.3594 1.94531C15.5859 2.40625 15.8086 2.87109 16.0273 3.33984C16.3867 3.98047 16.7188 4.30078 17.0234 4.30078C17.5 4.30078 18.1836 4.07031 19.0742 3.60938C19.8398 3.21094 20.4609 2.82422 20.9375 2.44922C21.1797 2.24609 21.543 1.94531 22.0273 1.54688C22.5586 1.125 22.9609 0.914062 23.2344 0.914062C23.4766 0.914062 23.5977 1.03516 23.5977 1.27734C23.5977 1.55078 23.2578 1.84375 22.5781 2.15625C22.4922 2.19531 22.0469 2.38672 21.2422 2.73047C21.2188 2.73828 21.1172 2.81641 20.9375 2.96484C20.2109 3.55859 19.4531 4.45703 18.6641 5.66016C18.25 6.28516 17.5977 7.42188 16.707 9.07031C17.0742 9.21875 17.6133 9.46875 18.3242 9.82031C19.4102 9.35938 20.707 8.33984 22.2148 6.76172C24.4258 4.45703 25.6797 3.17578 25.9766 2.91797C27.4531 1.66016 28.8516 1.03125 30.1719 1.03125C30.75 1.03125 31.2578 1.13672 31.6953 1.34766C32.25 1.61328 32.5273 2.00391 32.5273 2.51953ZM17.8906 10.0547C17.4297 9.70312 16.9805 9.48047 16.543 9.38672L15.8984 10.582C16.5703 10.5039 17.2344 10.3281 17.8906 10.0547ZM15.875 9.1875C15.4688 9.09375 15.1094 9.04688 14.7969 9.04688C14.4688 9.04688 14.1562 9.10938 13.8594 9.23438C13.4766 9.39844 13.2852 9.61719 13.2852 9.89062C13.2852 10.4453 13.7812 10.7227 14.7734 10.7227H15.1016L15.875 9.1875ZM38.0117 14.6836C38.0117 14.832 37.6445 15.2812 36.9102 16.0312C35.543 17.4219 34.543 18.1172 33.9102 18.1172C33.2539 18.1172 32.9258 17.7188 32.9258 16.9219C32.9258 16.7266 32.9648 16.4219 33.043 16.0078C31.9336 17.4141 30.9258 18.1172 30.0195 18.1172C29.0977 18.1172 28.6367 17.3008 28.6367 15.668C28.6367 15.3164 28.6875 14.9453 28.7891 14.5547C28.5938 14.8672 28.4297 15.0234 28.2969 15.0234C28.2031 15.0234 28.1562 14.9922 28.1562 14.9297C28.1562 14.7812 28.5312 14.332 29.2812 13.582C30.8438 12.0117 32.2852 11.2266 33.6055 11.2266C34.4492 11.2266 34.8711 11.5977 34.8711 12.3398C34.8711 12.4883 34.8398 12.6641 34.7773 12.8672L35.7617 11.4258L37.3438 11.332L34.707 15.4805C34.1133 16.418 33.8164 17.043 33.8164 17.3555C33.8164 17.5742 33.9375 17.6836 34.1797 17.6836C34.5625 17.6836 35.2031 17.2383 36.1016 16.3477L37.8711 14.5898C37.9648 14.582 38.0117 14.6133 38.0117 14.6836ZM34.4844 12.3398C34.4844 11.8398 34.2227 11.5898 33.6992 11.5898C32.8086 11.5898 31.8945 12.2656 30.957 13.6172C30.082 14.8828 29.6445 15.9922 29.6445 16.9453C29.6445 17.4375 29.8359 17.6836 30.2188 17.6836C30.7891 17.6836 31.5312 17.1797 32.4453 16.1719C33.8047 14.6797 34.4844 13.4023 34.4844 12.3398ZM52.6719 14.707C52.6719 14.9336 52.125 15.5508 51.0312 16.5586C49.9062 17.5977 49.1641 18.1172 48.8047 18.1172C48.0391 18.1172 47.6562 17.5508 47.6562 16.418C47.6562 15.832 48.0859 14.9531 48.9453 13.7812C49.8125 12.6094 50.2461 11.9766 50.2461 11.8828C50.2461 11.6875 50.1562 11.5898 49.9766 11.5898C49.2266 11.5898 47.2344 13.6797 44 17.8594L42.3242 18.0234L45.4414 13.3477C45.9414 12.5977 46.1914 12.1094 46.1914 11.8828C46.1914 11.6875 46.0781 11.5898 45.8516 11.5898C45.2188 11.5898 43.2109 13.6797 39.8281 17.8594L38.1289 18.0234L41.3633 13.1953C41.8086 12.5312 42.0312 12.1016 42.0312 11.9062C42.0312 11.6953 41.9219 11.5898 41.7031 11.5898C41.2969 11.5898 40.5312 12.1641 39.4062 13.3125C38.2812 14.4531 37.7344 15.0234 37.7656 15.0234C37.6875 15.0234 37.6484 14.9922 37.6484 14.9297C37.6484 14.7969 38.0859 14.2539 38.9609 13.3008C40.2422 11.9023 41.1875 11.2031 41.7969 11.2031C42.4219 11.2031 42.7344 11.582 42.7344 12.3398C42.7344 13.0352 42.4141 13.8984 41.7734 14.9297C43.7422 12.4453 45.1328 11.2031 45.9453 11.2031C46.5859 11.2031 46.9062 11.5391 46.9062 12.2109C46.9062 13.0234 46.5703 13.9141 45.8984 14.8828C48.0625 12.4297 49.4727 11.2031 50.1289 11.2031C50.7305 11.2031 51.0312 11.5977 51.0312 12.3867C51.0312 12.918 50.5977 13.8125 49.7305 15.0703C48.8711 16.3203 48.4414 17.0742 48.4414 17.332C48.4414 17.6211 48.5703 17.7656 48.8281 17.7656C49.2188 17.7656 50.4492 16.707 52.5195 14.5898C52.6211 14.582 52.6719 14.6211 52.6719 14.707ZM59.1523 7.17188C59.1523 7.42969 59.0547 7.67578 58.8594 7.91016C58.6719 8.14453 58.4531 8.26172 58.2031 8.26172C57.75 8.26172 57.5234 8.02734 57.5234 7.55859C57.5234 7.28516 57.6211 7.03906 57.8164 6.82031C58.0117 6.59375 58.2422 6.48047 58.5078 6.48047C58.9375 6.48047 59.1523 6.71094 59.1523 7.17188ZM57.957 14.707C57.957 14.8398 57.5898 15.2812 56.8555 16.0312C55.4961 17.4219 54.5195 18.1172 53.9258 18.1172C53.0586 18.1172 52.625 17.6133 52.625 16.6055C52.625 16.1445 52.8828 15.4805 53.3984 14.6133C53.3984 14.6133 53.7891 13.9883 54.5703 12.7383C53.2031 14.2461 52.4688 15 52.3672 15C52.3047 15 52.2734 14.9766 52.2734 14.9297C52.2734 14.7031 53.2891 13.543 55.3203 11.4492L57.043 11.332L54.6641 15.0703C53.8828 16.2969 53.4922 17.0508 53.4922 17.332C53.4922 17.6367 53.6289 17.7891 53.9023 17.7891C54.3945 17.7891 55.1758 17.2578 56.2461 16.1953C57.3242 15.125 57.8477 14.5898 57.8164 14.5898C57.9102 14.5898 57.957 14.6289 57.957 14.707ZM67.2617 3.33984L59.8672 15.0703C59.0859 16.3125 58.6953 17.0664 58.6953 17.332C58.6953 17.6367 58.8398 17.7891 59.1289 17.7891C59.543 17.7891 60.2578 17.3281 61.2734 16.4062C61.4453 16.25 62.0586 15.6445 63.1133 14.5898C63.207 14.582 63.2539 14.6211 63.2539 14.707C63.2539 14.8398 62.8867 15.2812 62.1523 16.0312C60.793 17.4219 59.8164 18.1172 59.2227 18.1172C58.3555 18.1172 57.9219 17.6133 57.9219 16.6055C57.9219 16.1055 58.5625 14.8164 59.8438 12.7383C58.4453 14.2617 57.7266 15.0234 57.6875 15.0234C57.6094 15.0234 57.5703 14.9922 57.5703 14.9297C57.5703 14.7891 58.0742 14.168 59.082 13.0664C60.1914 11.8477 60.8203 11.125 60.9688 10.8984L65.7031 3.55078L67.2617 3.33984ZM72.6992 14.6836C72.6992 14.832 72.332 15.2812 71.5977 16.0312C70.2305 17.4219 69.2305 18.1172 68.5977 18.1172C67.9414 18.1172 67.6133 17.7188 67.6133 16.9219C67.6133 16.7266 67.6523 16.4219 67.7305 16.0078C66.6211 17.4141 65.6133 18.1172 64.707 18.1172C63.7852 18.1172 63.3242 17.3008 63.3242 15.668C63.3242 15.3164 63.375 14.9453 63.4766 14.5547C63.2812 14.8672 63.1172 15.0234 62.9844 15.0234C62.8906 15.0234 62.8438 14.9922 62.8438 14.9297C62.8438 14.7812 63.2188 14.332 63.9688 13.582C65.5312 12.0117 66.9727 11.2266 68.293 11.2266C69.1367 11.2266 69.5586 11.5977 69.5586 12.3398C69.5586 12.4883 69.5273 12.6641 69.4648 12.8672L70.4492 11.4258L72.0312 11.332L69.3945 15.4805C68.8008 16.418 68.5039 17.043 68.5039 17.3555C68.5039 17.5742 68.625 17.6836 68.8672 17.6836C69.25 17.6836 69.8906 17.2383 70.7891 16.3477L72.5586 14.5898C72.6523 14.582 72.6992 14.6133 72.6992 14.6836ZM69.1719 12.3398C69.1719 11.8398 68.9102 11.5898 68.3867 11.5898C67.4961 11.5898 66.582 12.2656 65.6445 13.6172C64.7695 14.8828 64.332 15.9922 64.332 16.9453C64.332 17.4375 64.5234 17.6836 64.9062 17.6836C65.4766 17.6836 66.2188 17.1797 67.1328 16.1719C68.4922 14.6797 69.1719 13.4023 69.1719 12.3398ZM110.949 2.51953C110.949 2.84766 110.84 3.14062 110.621 3.39844C110.41 3.64844 110.145 3.77344 109.824 3.77344C109.309 3.77344 109.051 3.5 109.051 2.95312C109.051 2.85156 109.105 2.67969 109.215 2.4375C109.332 2.19531 109.391 2.03125 109.391 1.94531C109.391 1.57813 109.055 1.39453 108.383 1.39453C107.672 1.39453 106.734 1.94531 105.57 3.04688C105.148 3.44531 104.383 4.26953 103.273 5.51953C101.352 7.68359 99.2773 9.1875 97.0508 10.0312C97.707 10.5547 98.1758 11.0586 98.457 11.543C98.7695 12.0898 98.9258 12.7539 98.9258 13.5352C98.9258 13.7695 98.9102 14.1172 98.8789 14.5781C98.8477 15.0391 98.832 15.3867 98.832 15.6211C98.832 17.0508 99.375 17.7656 100.461 17.7656C101.703 17.7656 102.75 17.332 103.602 16.4648C104.453 15.5977 104.879 14.543 104.879 13.3008C104.879 12.707 104.746 12.1836 104.48 11.7305C104.168 11.1914 103.734 10.9219 103.18 10.9219C102.539 10.9219 101.746 11.3867 100.801 12.3164C100.699 12.3008 100.648 12.2578 100.648 12.1875C100.648 11.8203 101.035 11.4102 101.809 10.957C102.535 10.5352 103.109 10.3242 103.531 10.3242C104.289 10.3242 104.895 10.5742 105.348 11.0742C105.801 11.5664 106.027 12.1953 106.027 12.9609C106.027 14.3906 105.395 15.625 104.129 16.6641C102.934 17.6484 101.605 18.1406 100.145 18.1406C99.1836 18.1406 98.4336 17.8242 97.8945 17.1914C97.3789 16.5977 97.1211 15.8125 97.1211 14.8359C97.1211 14.5625 97.1367 14.1602 97.168 13.6289C97.207 13.0898 97.2266 12.6836 97.2266 12.4102C97.2266 11.3945 97 10.6836 96.5469 10.2773C95.7812 10.6133 94.9805 10.8438 94.1445 10.9688C92.9492 13.0547 91.5664 14.707 89.9961 15.9258C88.1367 17.3711 86.1445 18.0938 84.0195 18.0938C82.4023 18.0938 81.1094 17.6406 80.1406 16.7344C79.1406 15.8125 78.6406 14.5469 78.6406 12.9375C78.6406 12.3125 78.7383 11.7695 78.9336 11.3086C79.1992 10.6836 79.5977 10.3711 80.1289 10.3711C80.6758 10.3711 80.9492 10.6328 80.9492 11.1562C80.9492 11.6094 80.7773 11.9258 80.4336 12.1055C80.1289 12.1914 79.8242 12.2812 79.5195 12.375C79.1445 12.5312 78.957 12.7422 78.957 13.0078C78.957 13.7344 79.5234 14.6055 80.6562 15.6211C81.8828 16.7148 83.4375 17.2617 85.3203 17.2617C87.125 17.2617 88.7344 16.6289 90.1484 15.3633C91.2188 14.4023 92.2656 12.9766 93.2891 11.0859C91.4609 11.0859 90.5469 10.6484 90.5469 9.77344C90.5469 8.98438 91.2188 8.58984 92.5625 8.58984C93.25 8.58984 93.8906 8.67188 94.4844 8.83594C95.3516 7.39844 95.9102 6.49609 96.1602 6.12891C96.8164 5.14453 97.4648 4.30859 98.1055 3.62109C96.7461 4.48828 95.5 4.92188 94.3672 4.92188C93.7422 4.92188 93.2656 4.66797 92.9375 4.16016C92.8516 4.01953 92.6602 3.54297 92.3633 2.73047C92.1836 2.22266 91.957 1.96875 91.6836 1.96875C91.1992 1.96875 90.582 2.41406 89.832 3.30469C89.2383 4.01562 88.7734 4.69922 88.4375 5.35547C88.375 5.48047 88.1758 5.98438 87.8398 6.86719C87.5508 7.63281 87.375 8.01562 87.3125 8.01562C87.2109 8.01562 87.1602 7.97656 87.1602 7.89844C87.1602 7.48438 87.3594 6.83984 87.7578 5.96484C88.2734 4.83203 88.9062 3.82031 89.6562 2.92969C90.6719 1.72656 91.6328 1.125 92.5391 1.125C93.0234 1.125 93.4375 1.39844 93.7812 1.94531C94.0078 2.40625 94.2305 2.87109 94.4492 3.33984C94.8086 3.98047 95.1406 4.30078 95.4453 4.30078C95.9219 4.30078 96.6055 4.07031 97.4961 3.60938C98.2617 3.21094 98.8828 2.82422 99.3594 2.44922C99.6016 2.24609 99.9648 1.94531 100.449 1.54688C100.98 1.125 101.383 0.914062 101.656 0.914062C101.898 0.914062 102.02 1.03516 102.02 1.27734C102.02 1.55078 101.68 1.84375 101 2.15625C100.914 2.19531 100.469 2.38672 99.6641 2.73047C99.6406 2.73828 99.5391 2.81641 99.3594 2.96484C98.6328 3.55859 97.875 4.45703 97.0859 5.66016C96.6719 6.28516 96.0195 7.42188 95.1289 9.07031C95.4961 9.21875 96.0352 9.46875 96.7461 9.82031C97.832 9.35938 99.1289 8.33984 100.637 6.76172C102.848 4.45703 104.102 3.17578 104.398 2.91797C105.875 1.66016 107.273 1.03125 108.594 1.03125C109.172 1.03125 109.68 1.13672 110.117 1.34766C110.672 1.61328 110.949 2.00391 110.949 2.51953ZM96.3125 10.0547C95.8516 9.70312 95.4023 9.48047 94.9648 9.38672L94.3203 10.582C94.9922 10.5039 95.6562 10.3281 96.3125 10.0547ZM94.2969 9.1875C93.8906 9.09375 93.5312 9.04688 93.2188 9.04688C92.8906 9.04688 92.5781 9.10938 92.2812 9.23438C91.8984 9.39844 91.707 9.61719 91.707 9.89062C91.707 10.4453 92.2031 10.7227 93.1953 10.7227H93.5234L94.2969 9.1875ZM113.48 7.17188C113.48 7.42969 113.383 7.67578 113.188 7.91016C113 8.14453 112.781 8.26172 112.531 8.26172C112.078 8.26172 111.852 8.02734 111.852 7.55859C111.852 7.28516 111.949 7.03906 112.145 6.82031C112.34 6.59375 112.57 6.48047 112.836 6.48047C113.266 6.48047 113.48 6.71094 113.48 7.17188ZM112.285 14.707C112.285 14.8398 111.918 15.2812 111.184 16.0312C109.824 17.4219 108.848 18.1172 108.254 18.1172C107.387 18.1172 106.953 17.6133 106.953 16.6055C106.953 16.1445 107.211 15.4805 107.727 14.6133C107.727 14.6133 108.117 13.9883 108.898 12.7383C107.531 14.2461 106.797 15 106.695 15C106.633 15 106.602 14.9766 106.602 14.9297C106.602 14.7031 107.617 13.543 109.648 11.4492L111.371 11.332L108.992 15.0703C108.211 16.2969 107.82 17.0508 107.82 17.332C107.82 17.6367 107.957 17.7891 108.23 17.7891C108.723 17.7891 109.504 17.2578 110.574 16.1953C111.652 15.125 112.176 14.5898 112.145 14.5898C112.238 14.5898 112.285 14.6289 112.285 14.707ZM126.922 14.707C126.922 14.9336 126.375 15.5508 125.281 16.5586C124.156 17.5977 123.414 18.1172 123.055 18.1172C122.289 18.1172 121.906 17.5508 121.906 16.418C121.906 15.832 122.336 14.9531 123.195 13.7812C124.062 12.6094 124.496 11.9766 124.496 11.8828C124.496 11.6875 124.406 11.5898 124.227 11.5898C123.477 11.5898 121.484 13.6797 118.25 17.8594L116.574 18.0234L119.691 13.3477C120.191 12.5977 120.441 12.1094 120.441 11.8828C120.441 11.6875 120.328 11.5898 120.102 11.5898C119.469 11.5898 117.461 13.6797 114.078 17.8594L112.379 18.0234L115.613 13.1953C116.059 12.5312 116.281 12.1016 116.281 11.9062C116.281 11.6953 116.172 11.5898 115.953 11.5898C115.547 11.5898 114.781 12.1641 113.656 13.3125C112.531 14.4531 111.984 15.0234 112.016 15.0234C111.938 15.0234 111.898 14.9922 111.898 14.9297C111.898 14.7969 112.336 14.2539 113.211 13.3008C114.492 11.9023 115.438 11.2031 116.047 11.2031C116.672 11.2031 116.984 11.582 116.984 12.3398C116.984 13.0352 116.664 13.8984 116.023 14.9297C117.992 12.4453 119.383 11.2031 120.195 11.2031C120.836 11.2031 121.156 11.5391 121.156 12.2109C121.156 13.0234 120.82 13.9141 120.148 14.8828C122.312 12.4297 123.723 11.2031 124.379 11.2031C124.98 11.2031 125.281 11.5977 125.281 12.3867C125.281 12.918 124.848 13.8125 123.98 15.0703C123.121 16.3203 122.691 17.0742 122.691 17.332C122.691 17.6211 122.82 17.7656 123.078 17.7656C123.469 17.7656 124.699 16.707 126.77 14.5898C126.871 14.582 126.922 14.6211 126.922 14.707ZM158.398 4.14844C158.398 5.19531 158.066 6.05078 157.402 6.71484C156.738 7.37109 155.883 7.69922 154.836 7.69922C153.688 7.69922 152.867 7.19531 152.375 6.1875L151.285 7.27734C152.23 8.51953 152.703 9.29297 152.703 9.59766C152.703 9.69922 152.656 9.74609 152.562 9.73828C152.477 9.62891 151.973 8.89453 151.051 7.53516C149.707 8.54297 148.609 9.20703 147.758 9.52734C146.086 15.2539 143.062 18.1172 138.688 18.1172C136.984 18.1172 135.609 17.6289 134.562 16.6523C133.477 15.6523 132.934 14.3086 132.934 12.6211C132.934 11.8086 133.105 10.9727 133.449 10.1133C133.879 9.03516 134.434 8.49609 135.113 8.49609C135.355 8.49609 135.559 8.58594 135.723 8.76562C135.895 8.9375 135.98 9.14453 135.98 9.38672C135.98 10.043 135.613 10.3711 134.879 10.3711C134.77 10.3711 134.613 10.3398 134.41 10.2773C134.207 10.207 134.051 10.1719 133.941 10.1719C133.652 10.1719 133.508 10.5898 133.508 11.4258C133.508 13.1289 134.148 14.5703 135.43 15.75C136.672 16.8984 138.152 17.4727 139.871 17.4727C141.738 17.4727 143.23 16.6719 144.348 15.0703C145.23 13.8125 145.84 12.1484 146.176 10.0781C144.91 10.3828 143.84 10.5352 142.965 10.5352C141.27 10.5352 139.836 10.1172 138.664 9.28125C137.352 8.34375 136.695 7.05859 136.695 5.42578C136.695 4.06641 137.141 2.97266 138.031 2.14453C138.898 1.33984 140.016 0.9375 141.383 0.9375C143.406 0.9375 145.668 1.99219 148.168 4.10156C149.793 1.99219 151.922 0.9375 154.555 0.9375C155.625 0.9375 156.512 1.19922 157.215 1.72266C158.004 2.30078 158.398 3.10938 158.398 4.14844ZM157.121 4.58203C157.121 3.60547 156.812 2.81641 156.195 2.21484C155.578 1.60547 154.781 1.30078 153.805 1.30078C151.711 1.30078 150.199 2.53125 149.27 4.99219C149.699 5.39062 150.289 6.04297 151.039 6.94922C151.43 6.64453 151.848 6.23828 152.293 5.73047L152.199 4.85156C152.199 4.51562 152.281 4.17578 152.445 3.83203C152.641 3.41797 152.887 3.21094 153.184 3.21094C153.52 3.21094 153.688 3.40625 153.688 3.79688C153.688 3.96875 153.32 4.66406 152.586 5.88281C153.008 6.85938 153.695 7.34766 154.648 7.34766C155.398 7.34766 156.008 7.07031 156.477 6.51562C156.906 5.99219 157.121 5.34766 157.121 4.58203ZM150.828 7.19531C150.219 6.40625 149.645 5.80859 149.105 5.40234L147.957 8.88281C148.918 8.52344 149.875 7.96094 150.828 7.19531ZM147.934 4.41797C145.637 2.64453 143.273 1.75781 140.844 1.75781C139.766 1.75781 138.898 2 138.242 2.48438C137.5 3.02344 137.129 3.8125 137.129 4.85156C137.129 6.32812 137.941 7.51562 139.566 8.41406C140.934 9.17188 142.418 9.55078 144.02 9.55078C144.598 9.55078 145.371 9.47266 146.34 9.31641C146.777 6.97266 147.309 5.33984 147.934 4.41797ZM160.965 9L160.777 9.33984H158L154.414 15.0703C153.664 16.2656 153.289 17.0195 153.289 17.332C153.289 17.6367 153.426 17.7891 153.699 17.7891C154.238 17.7891 155.176 17.0898 156.512 15.6914C156.715 15.4727 157.082 15.1055 157.613 14.5898C157.707 14.582 157.754 14.6211 157.754 14.707C157.754 14.8398 157.387 15.2812 156.652 16.0312C155.293 17.4219 154.316 18.1172 153.723 18.1172C152.855 18.1172 152.422 17.6133 152.422 16.6055C152.422 16.1445 152.68 15.4805 153.195 14.6133C153.195 14.6133 153.586 13.9883 154.367 12.7383C153 14.2461 152.266 15 152.164 15C152.102 15 152.07 14.9766 152.07 14.9297C152.07 14.8203 152.578 14.1992 153.594 13.0664C154.711 11.8164 155.336 11.0938 155.469 10.8984L156.512 9.33984H155.352L155.551 9H156.723L158.188 6.66797L159.746 6.55078L158.211 9H160.965ZM167.059 14.6836C167.059 14.9258 166.523 15.5508 165.453 16.5586C164.344 17.5977 163.59 18.1172 163.191 18.1172C162.441 18.1172 162.066 17.5742 162.066 16.4883C162.066 16.3398 162.098 16.1094 162.16 15.7969C160.824 17.3438 159.777 18.1172 159.02 18.1172C158.137 18.1172 157.695 17.6133 157.695 16.6055C157.695 15.9336 158.344 14.6484 159.641 12.75C158.242 14.25 157.516 15 157.461 15C157.383 15 157.344 14.9766 157.344 14.9297C157.344 14.7344 158.359 13.5742 160.391 11.4492L162.113 11.3555L159.582 15.3164C158.902 16.3789 158.562 17.0508 158.562 17.332C158.562 17.6211 158.691 17.7656 158.949 17.7656C160.332 17.7656 162.273 15.6602 164.773 11.4492L166.391 11.3555L163.473 15.9727C163.051 16.6367 162.84 17.0898 162.84 17.332C162.84 17.6211 162.965 17.7656 163.215 17.7656C164.238 17.7656 165.473 16.707 166.918 14.5898C167.012 14.5898 167.059 14.6211 167.059 14.6836ZM180.184 3.33984L173.633 14.707C172.844 16.0742 172.449 16.9492 172.449 17.332C172.449 17.5508 172.578 17.6602 172.836 17.6602C173.141 17.6602 173.812 17.1484 174.852 16.125C175.891 15.1016 176.402 14.5898 176.387 14.5898C176.48 14.5898 176.527 14.6211 176.527 14.6836C176.527 14.832 176.16 15.2812 175.426 16.0312C174.059 17.4219 173.059 18.1172 172.426 18.1172C171.77 18.1172 171.441 17.7188 171.441 16.9219C171.441 16.7266 171.48 16.4219 171.559 16.0078C170.449 17.4141 169.441 18.1172 168.535 18.1172C167.613 18.1172 167.152 17.3008 167.152 15.668C167.152 15.3164 167.203 14.9453 167.305 14.5547C167.109 14.8672 166.945 15.0234 166.812 15.0234C166.719 15.0234 166.672 14.9922 166.672 14.9297C166.672 14.7812 167.047 14.332 167.797 13.582C169.359 12.0117 170.801 11.2266 172.121 11.2266C172.965 11.2266 173.387 11.5977 173.387 12.3398C173.387 12.4883 173.355 12.6641 173.293 12.8672L178.625 3.41016L180.184 3.33984ZM173 12.3398C173 11.8398 172.738 11.5898 172.215 11.5898C171.324 11.5898 170.41 12.2656 169.473 13.6172C168.598 14.8828 168.16 15.9922 168.16 16.9453C168.16 17.4375 168.352 17.6836 168.734 17.6836C169.305 17.6836 170.047 17.1797 170.961 16.1719C172.32 14.6797 173 13.4023 173 12.3398ZM183.043 7.17188C183.043 7.42969 182.945 7.67578 182.75 7.91016C182.562 8.14453 182.344 8.26172 182.094 8.26172C181.641 8.26172 181.414 8.02734 181.414 7.55859C181.414 7.28516 181.512 7.03906 181.707 6.82031C181.902 6.59375 182.133 6.48047 182.398 6.48047C182.828 6.48047 183.043 6.71094 183.043 7.17188ZM181.848 14.707C181.848 14.8398 181.48 15.2812 180.746 16.0312C179.387 17.4219 178.41 18.1172 177.816 18.1172C176.949 18.1172 176.516 17.6133 176.516 16.6055C176.516 16.1445 176.773 15.4805 177.289 14.6133C177.289 14.6133 177.68 13.9883 178.461 12.7383C177.094 14.2461 176.359 15 176.258 15C176.195 15 176.164 14.9766 176.164 14.9297C176.164 14.7031 177.18 13.543 179.211 11.4492L180.934 11.332L178.555 15.0703C177.773 16.2969 177.383 17.0508 177.383 17.332C177.383 17.6367 177.52 17.7891 177.793 17.7891C178.285 17.7891 179.066 17.2578 180.137 16.1953C181.215 15.125 181.738 14.5898 181.707 14.5898C181.801 14.5898 181.848 14.6289 181.848 14.707ZM189.98 14.543C189.98 14.6055 189.883 14.75 189.688 14.9766C188.977 15.8047 188.16 16.2188 187.238 16.2188C187.066 16.2188 186.887 16.207 186.699 16.1836C185.512 17.4727 184.453 18.1172 183.523 18.1172C182.453 18.1172 181.918 17.2852 181.918 15.6211C181.918 15.3398 181.98 14.9727 182.105 14.5195C181.855 14.8398 181.68 15 181.578 15C181.5 15 181.461 14.9688 181.461 14.9062C181.461 14.8047 181.789 14.3945 182.445 13.6758C183.969 12.0117 185.375 11.1797 186.664 11.1797C187.766 11.1797 188.316 11.7578 188.316 12.9141C188.316 13.7109 187.879 14.6797 187.004 15.8203C187.332 15.8672 187.461 15.8906 187.391 15.8906C187.961 15.8906 188.527 15.6445 189.09 15.1523C189.652 14.6523 189.918 14.4023 189.887 14.4023C189.949 14.4023 189.98 14.4492 189.98 14.543ZM187.672 12.7969C187.672 11.9922 187.367 11.5898 186.758 11.5898C185.938 11.5898 185.086 12.2695 184.203 13.6289C183.383 14.8945 182.973 15.9766 182.973 16.875C182.973 17.4453 183.219 17.7305 183.711 17.7305C184.328 17.7305 185.082 17.2539 185.973 16.3008C187.105 15.0898 187.672 13.9219 187.672 12.7969Z" fill="#5DBFD0"/>
</svg>
